<mxfile host="Electron" modified="2024-05-14T02:31:19.805Z" agent="Mozilla/5.0 (Windows NT 10.0; Win64; x64) AppleWebKit/537.36 (KHTML, like Gecko) draw.io/23.1.5 Chrome/120.0.6099.109 Electron/28.1.0 Safari/537.36" etag="lzC_QL2rb8UdXRauvTI_" version="23.1.5" type="device">
  <diagram name="Page-1" id="tz5FJdPGJYnll3CepqfB">
    <mxGraphModel dx="840" dy="497" grid="1" gridSize="10" guides="1" tooltips="1" connect="1" arrows="1" fold="1" page="1" pageScale="1" pageWidth="827" pageHeight="1169" math="0" shadow="0">
      <root>
        <mxCell id="0" />
        <mxCell id="1" parent="0" />
        <mxCell id="y9X2fHoFPcFzoOq7KdYe-1" value="Hotel&lt;br&gt;Managment&lt;br&gt;system" style="shape=module;align=left;spacingLeft=20;align=center;verticalAlign=top;whiteSpace=wrap;html=1;" vertex="1" parent="1">
          <mxGeometry x="350" y="310" width="100" height="50" as="geometry" />
        </mxCell>
        <mxCell id="y9X2fHoFPcFzoOq7KdYe-3" value="" style="shape=waypoint;sketch=0;fillStyle=solid;size=6;pointerEvents=1;points=[];fillColor=none;resizable=0;rotatable=0;perimeter=centerPerimeter;snapToPoint=1;" vertex="1" parent="1">
          <mxGeometry x="390" y="400" width="20" height="20" as="geometry" />
        </mxCell>
        <mxCell id="y9X2fHoFPcFzoOq7KdYe-4" value="" style="endArrow=none;html=1;rounded=0;entryX=0.5;entryY=1;entryDx=0;entryDy=0;" edge="1" parent="1" target="y9X2fHoFPcFzoOq7KdYe-1">
          <mxGeometry width="50" height="50" relative="1" as="geometry">
            <mxPoint x="400" y="410" as="sourcePoint" />
            <mxPoint x="510" y="270" as="targetPoint" />
          </mxGeometry>
        </mxCell>
        <mxCell id="y9X2fHoFPcFzoOq7KdYe-5" value="system admin&lt;br&gt;of hotel&amp;nbsp;&lt;br&gt;managment&lt;br&gt;system" style="text;html=1;align=center;verticalAlign=middle;resizable=0;points=[];autosize=1;strokeColor=none;fillColor=none;" vertex="1" parent="1">
          <mxGeometry x="350" y="420" width="100" height="70" as="geometry" />
        </mxCell>
        <mxCell id="y9X2fHoFPcFzoOq7KdYe-6" value="" style="endArrow=none;dashed=1;html=1;rounded=0;entryX=0;entryY=0.5;entryDx=0;entryDy=0;entryPerimeter=0;" edge="1" parent="1" target="y9X2fHoFPcFzoOq7KdYe-9">
          <mxGeometry width="50" height="50" relative="1" as="geometry">
            <mxPoint x="450" y="319" as="sourcePoint" />
            <mxPoint x="588.5" y="121.43589743589746" as="targetPoint" />
            <Array as="points">
              <mxPoint x="520" y="319" />
              <mxPoint x="520" y="119" />
            </Array>
          </mxGeometry>
        </mxCell>
        <mxCell id="y9X2fHoFPcFzoOq7KdYe-8" value="Hotel" style="shape=module;align=left;spacingLeft=20;align=center;verticalAlign=top;whiteSpace=wrap;html=1;" vertex="1" parent="1">
          <mxGeometry x="610" y="104" width="100" height="50" as="geometry" />
        </mxCell>
        <mxCell id="y9X2fHoFPcFzoOq7KdYe-9" value="" style="html=1;shadow=0;dashed=0;align=center;verticalAlign=middle;shape=mxgraph.arrows2.arrow;dy=0.6;dx=40;direction=north;notch=0;rotation=90;" vertex="1" parent="1">
          <mxGeometry x="591" y="109" width="15" height="20" as="geometry" />
        </mxCell>
        <mxCell id="y9X2fHoFPcFzoOq7KdYe-12" value="" style="shape=waypoint;sketch=0;fillStyle=solid;size=6;pointerEvents=1;points=[];fillColor=none;resizable=0;rotatable=0;perimeter=centerPerimeter;snapToPoint=1;" vertex="1" parent="1">
          <mxGeometry x="579" y="130" width="20" height="20" as="geometry" />
        </mxCell>
        <mxCell id="y9X2fHoFPcFzoOq7KdYe-13" value="" style="endArrow=none;html=1;rounded=0;entryX=0;entryY=0;entryDx=0;entryDy=35;entryPerimeter=0;" edge="1" parent="1" source="y9X2fHoFPcFzoOq7KdYe-12" target="y9X2fHoFPcFzoOq7KdYe-8">
          <mxGeometry width="50" height="50" relative="1" as="geometry">
            <mxPoint x="593" y="171" as="sourcePoint" />
            <mxPoint x="611" y="128" as="targetPoint" />
          </mxGeometry>
        </mxCell>
        <mxCell id="y9X2fHoFPcFzoOq7KdYe-14" value="Booking" style="shape=module;align=left;spacingLeft=20;align=center;verticalAlign=top;whiteSpace=wrap;html=1;" vertex="1" parent="1">
          <mxGeometry x="610" y="180" width="100" height="50" as="geometry" />
        </mxCell>
        <mxCell id="y9X2fHoFPcFzoOq7KdYe-15" value="" style="endArrow=none;dashed=1;html=1;rounded=0;" edge="1" parent="1">
          <mxGeometry width="50" height="50" relative="1" as="geometry">
            <mxPoint x="519" y="198" as="sourcePoint" />
            <mxPoint x="589" y="198" as="targetPoint" />
          </mxGeometry>
        </mxCell>
        <mxCell id="y9X2fHoFPcFzoOq7KdYe-16" value="" style="html=1;shadow=0;dashed=0;align=center;verticalAlign=middle;shape=mxgraph.arrows2.arrow;dy=0.6;dx=40;notch=0;" vertex="1" parent="1">
          <mxGeometry x="588" y="185" width="20" height="20" as="geometry" />
        </mxCell>
        <mxCell id="y9X2fHoFPcFzoOq7KdYe-18" value="" style="shape=waypoint;sketch=0;fillStyle=solid;size=6;pointerEvents=1;points=[];fillColor=none;resizable=0;rotatable=0;perimeter=centerPerimeter;snapToPoint=1;" vertex="1" parent="1">
          <mxGeometry x="578" y="206" width="20" height="20" as="geometry" />
        </mxCell>
        <mxCell id="y9X2fHoFPcFzoOq7KdYe-19" value="" style="endArrow=none;html=1;rounded=0;entryX=0;entryY=0;entryDx=0;entryDy=35;entryPerimeter=0;" edge="1" parent="1">
          <mxGeometry width="50" height="50" relative="1" as="geometry">
            <mxPoint x="590" y="216" as="sourcePoint" />
            <mxPoint x="610" y="216" as="targetPoint" />
          </mxGeometry>
        </mxCell>
        <mxCell id="y9X2fHoFPcFzoOq7KdYe-20" value="Rooms" style="shape=module;align=left;spacingLeft=20;align=center;verticalAlign=top;whiteSpace=wrap;html=1;" vertex="1" parent="1">
          <mxGeometry x="608" y="264" width="100" height="50" as="geometry" />
        </mxCell>
        <mxCell id="y9X2fHoFPcFzoOq7KdYe-21" value="" style="endArrow=none;dashed=1;html=1;rounded=0;" edge="1" parent="1" target="y9X2fHoFPcFzoOq7KdYe-22">
          <mxGeometry width="50" height="50" relative="1" as="geometry">
            <mxPoint x="520" y="280" as="sourcePoint" />
            <mxPoint x="590" y="280" as="targetPoint" />
          </mxGeometry>
        </mxCell>
        <mxCell id="y9X2fHoFPcFzoOq7KdYe-22" value="" style="html=1;shadow=0;dashed=0;align=center;verticalAlign=middle;shape=mxgraph.arrows2.arrow;dy=0.6;dx=40;notch=0;" vertex="1" parent="1">
          <mxGeometry x="596" y="272" width="10" height="15" as="geometry" />
        </mxCell>
        <mxCell id="y9X2fHoFPcFzoOq7KdYe-23" value="" style="shape=waypoint;sketch=0;fillStyle=solid;size=6;pointerEvents=1;points=[];fillColor=none;resizable=0;rotatable=0;perimeter=centerPerimeter;snapToPoint=1;" vertex="1" parent="1">
          <mxGeometry x="576" y="290" width="20" height="20" as="geometry" />
        </mxCell>
        <mxCell id="y9X2fHoFPcFzoOq7KdYe-24" value="" style="endArrow=none;html=1;rounded=0;exitX=0.752;exitY=0.306;exitDx=0;exitDy=0;exitPerimeter=0;entryX=0;entryY=0;entryDx=0;entryDy=35;entryPerimeter=0;" edge="1" parent="1" source="y9X2fHoFPcFzoOq7KdYe-23" target="y9X2fHoFPcFzoOq7KdYe-20">
          <mxGeometry width="50" height="50" relative="1" as="geometry">
            <mxPoint x="490" y="250" as="sourcePoint" />
            <mxPoint x="540" y="200" as="targetPoint" />
          </mxGeometry>
        </mxCell>
        <mxCell id="y9X2fHoFPcFzoOq7KdYe-25" value="" style="endArrow=none;dashed=1;html=1;rounded=0;exitX=1;exitY=0.75;exitDx=0;exitDy=0;" edge="1" parent="1" source="y9X2fHoFPcFzoOq7KdYe-1">
          <mxGeometry width="50" height="50" relative="1" as="geometry">
            <mxPoint x="462" y="347.5" as="sourcePoint" />
            <mxPoint x="602" y="480" as="targetPoint" />
            <Array as="points">
              <mxPoint x="532" y="348" />
              <mxPoint x="532" y="480" />
            </Array>
          </mxGeometry>
        </mxCell>
        <mxCell id="y9X2fHoFPcFzoOq7KdYe-28" value="Service" style="shape=module;align=left;spacingLeft=20;align=center;verticalAlign=top;whiteSpace=wrap;html=1;" vertex="1" parent="1">
          <mxGeometry x="619" y="382" width="100" height="50" as="geometry" />
        </mxCell>
        <mxCell id="y9X2fHoFPcFzoOq7KdYe-29" value="Payment" style="shape=module;align=left;spacingLeft=20;align=center;verticalAlign=top;whiteSpace=wrap;html=1;" vertex="1" parent="1">
          <mxGeometry x="618" y="462" width="100" height="50" as="geometry" />
        </mxCell>
        <mxCell id="y9X2fHoFPcFzoOq7KdYe-30" value="" style="html=1;shadow=0;dashed=0;align=center;verticalAlign=middle;shape=mxgraph.arrows2.arrow;dy=0.6;dx=40;notch=0;" vertex="1" parent="1">
          <mxGeometry x="605" y="468" width="10" height="20" as="geometry" />
        </mxCell>
        <mxCell id="y9X2fHoFPcFzoOq7KdYe-31" value="" style="shape=waypoint;sketch=0;fillStyle=solid;size=6;pointerEvents=1;points=[];fillColor=none;resizable=0;rotatable=0;perimeter=centerPerimeter;snapToPoint=1;" vertex="1" parent="1">
          <mxGeometry x="587" y="487" width="20" height="20" as="geometry" />
        </mxCell>
        <mxCell id="y9X2fHoFPcFzoOq7KdYe-32" value="" style="endArrow=none;html=1;rounded=0;entryX=0;entryY=0;entryDx=0;entryDy=35;entryPerimeter=0;" edge="1" parent="1" source="y9X2fHoFPcFzoOq7KdYe-31" target="y9X2fHoFPcFzoOq7KdYe-29">
          <mxGeometry width="50" height="50" relative="1" as="geometry">
            <mxPoint x="490" y="390" as="sourcePoint" />
            <mxPoint x="540" y="340" as="targetPoint" />
          </mxGeometry>
        </mxCell>
        <mxCell id="y9X2fHoFPcFzoOq7KdYe-33" value="" style="endArrow=none;dashed=1;html=1;rounded=0;" edge="1" parent="1" target="y9X2fHoFPcFzoOq7KdYe-34">
          <mxGeometry width="50" height="50" relative="1" as="geometry">
            <mxPoint x="530" y="400" as="sourcePoint" />
            <mxPoint x="600" y="400" as="targetPoint" />
          </mxGeometry>
        </mxCell>
        <mxCell id="y9X2fHoFPcFzoOq7KdYe-34" value="" style="html=1;shadow=0;dashed=0;align=center;verticalAlign=middle;shape=mxgraph.arrows2.arrow;dy=0.6;dx=40;notch=0;" vertex="1" parent="1">
          <mxGeometry x="598" y="391" width="20" height="15" as="geometry" />
        </mxCell>
        <mxCell id="y9X2fHoFPcFzoOq7KdYe-35" value="" style="shape=waypoint;sketch=0;fillStyle=solid;size=6;pointerEvents=1;points=[];fillColor=none;resizable=0;rotatable=0;perimeter=centerPerimeter;snapToPoint=1;" vertex="1" parent="1">
          <mxGeometry x="587" y="408" width="20" height="20" as="geometry" />
        </mxCell>
        <mxCell id="y9X2fHoFPcFzoOq7KdYe-36" value="" style="endArrow=none;html=1;rounded=0;entryX=0;entryY=0;entryDx=0;entryDy=35;entryPerimeter=0;" edge="1" parent="1" source="y9X2fHoFPcFzoOq7KdYe-35" target="y9X2fHoFPcFzoOq7KdYe-28">
          <mxGeometry width="50" height="50" relative="1" as="geometry">
            <mxPoint x="490" y="390" as="sourcePoint" />
            <mxPoint x="540" y="340" as="targetPoint" />
          </mxGeometry>
        </mxCell>
        <mxCell id="y9X2fHoFPcFzoOq7KdYe-38" value="Data&lt;br&gt;Access" style="text;html=1;align=center;verticalAlign=middle;resizable=0;points=[];autosize=1;strokeColor=none;fillColor=none;" vertex="1" parent="1">
          <mxGeometry x="540" y="133" width="60" height="40" as="geometry" />
        </mxCell>
        <mxCell id="y9X2fHoFPcFzoOq7KdYe-39" value="Data&lt;br&gt;Access" style="text;html=1;align=center;verticalAlign=middle;resizable=0;points=[];autosize=1;strokeColor=none;fillColor=none;" vertex="1" parent="1">
          <mxGeometry x="548" y="220" width="60" height="40" as="geometry" />
        </mxCell>
        <mxCell id="y9X2fHoFPcFzoOq7KdYe-41" value="Data&lt;br&gt;Access" style="text;html=1;align=center;verticalAlign=middle;resizable=0;points=[];autosize=1;strokeColor=none;fillColor=none;" vertex="1" parent="1">
          <mxGeometry x="550" y="300" width="60" height="40" as="geometry" />
        </mxCell>
        <mxCell id="y9X2fHoFPcFzoOq7KdYe-42" value="Data&lt;br&gt;Access" style="text;html=1;align=center;verticalAlign=middle;resizable=0;points=[];autosize=1;strokeColor=none;fillColor=none;" vertex="1" parent="1">
          <mxGeometry x="560" y="413" width="60" height="40" as="geometry" />
        </mxCell>
        <mxCell id="y9X2fHoFPcFzoOq7KdYe-43" value="Data&lt;br&gt;Access" style="text;html=1;align=center;verticalAlign=middle;resizable=0;points=[];autosize=1;strokeColor=none;fillColor=none;" vertex="1" parent="1">
          <mxGeometry x="560" y="503" width="60" height="40" as="geometry" />
        </mxCell>
        <mxCell id="y9X2fHoFPcFzoOq7KdYe-44" value="" style="endArrow=none;html=1;rounded=0;exitX=1;exitY=0.25;exitDx=0;exitDy=0;" edge="1" parent="1">
          <mxGeometry width="50" height="50" relative="1" as="geometry">
            <mxPoint x="710" y="119.5" as="sourcePoint" />
            <mxPoint x="720" y="490" as="targetPoint" />
            <Array as="points">
              <mxPoint x="760" y="120" />
              <mxPoint x="760" y="490" />
            </Array>
          </mxGeometry>
        </mxCell>
        <mxCell id="y9X2fHoFPcFzoOq7KdYe-45" value="" style="endArrow=none;html=1;rounded=0;exitX=1.032;exitY=0.382;exitDx=0;exitDy=0;exitPerimeter=0;" edge="1" parent="1" source="y9X2fHoFPcFzoOq7KdYe-28">
          <mxGeometry width="50" height="50" relative="1" as="geometry">
            <mxPoint x="719" y="406" as="sourcePoint" />
            <mxPoint x="760" y="401" as="targetPoint" />
          </mxGeometry>
        </mxCell>
        <mxCell id="y9X2fHoFPcFzoOq7KdYe-46" value="" style="endArrow=none;html=1;rounded=0;" edge="1" parent="1">
          <mxGeometry width="50" height="50" relative="1" as="geometry">
            <mxPoint x="760" y="280" as="sourcePoint" />
            <mxPoint x="710" y="280" as="targetPoint" />
          </mxGeometry>
        </mxCell>
        <mxCell id="y9X2fHoFPcFzoOq7KdYe-47" value="" style="endArrow=none;html=1;rounded=0;exitX=1;exitY=0.25;exitDx=0;exitDy=0;" edge="1" parent="1" source="y9X2fHoFPcFzoOq7KdYe-14">
          <mxGeometry width="50" height="50" relative="1" as="geometry">
            <mxPoint x="713.3" y="201.85000000000002" as="sourcePoint" />
            <mxPoint x="760" y="193" as="targetPoint" />
          </mxGeometry>
        </mxCell>
        <mxCell id="y9X2fHoFPcFzoOq7KdYe-48" value="" style="rounded=0;orthogonalLoop=1;jettySize=auto;html=1;endArrow=halfCircle;endFill=0;endSize=6;strokeWidth=1;sketch=0;" edge="1" parent="1">
          <mxGeometry relative="1" as="geometry">
            <mxPoint x="762" y="185" as="sourcePoint" />
            <mxPoint x="822" y="185" as="targetPoint" />
          </mxGeometry>
        </mxCell>
        <mxCell id="y9X2fHoFPcFzoOq7KdYe-49" value="" style="rounded=0;orthogonalLoop=1;jettySize=auto;html=1;endArrow=oval;endFill=0;sketch=0;sourcePerimeterSpacing=0;targetPerimeterSpacing=0;endSize=10;exitX=0;exitY=0;exitDx=0;exitDy=15;exitPerimeter=0;" edge="1" parent="1">
          <mxGeometry relative="1" as="geometry">
            <mxPoint x="907" y="188" as="sourcePoint" />
            <mxPoint x="827" y="185" as="targetPoint" />
          </mxGeometry>
        </mxCell>
        <mxCell id="y9X2fHoFPcFzoOq7KdYe-50" value="" style="ellipse;whiteSpace=wrap;html=1;align=center;aspect=fixed;fillColor=none;strokeColor=none;resizable=0;perimeter=centerPerimeter;rotatable=0;allowArrows=0;points=[];outlineConnect=1;" vertex="1" parent="1">
          <mxGeometry x="685" y="300" width="10" height="10" as="geometry" />
        </mxCell>
        <mxCell id="y9X2fHoFPcFzoOq7KdYe-51" value="" style="rounded=0;orthogonalLoop=1;jettySize=auto;html=1;endArrow=halfCircle;endFill=0;endSize=6;strokeWidth=1;sketch=0;" edge="1" parent="1">
          <mxGeometry relative="1" as="geometry">
            <mxPoint x="760" y="210" as="sourcePoint" />
            <mxPoint x="820" y="210" as="targetPoint" />
          </mxGeometry>
        </mxCell>
        <mxCell id="y9X2fHoFPcFzoOq7KdYe-52" value="" style="rounded=0;orthogonalLoop=1;jettySize=auto;html=1;endArrow=oval;endFill=0;sketch=0;sourcePerimeterSpacing=0;targetPerimeterSpacing=0;endSize=10;exitX=0;exitY=0;exitDx=0;exitDy=35;exitPerimeter=0;" edge="1" parent="1">
          <mxGeometry relative="1" as="geometry">
            <mxPoint x="908" y="210" as="sourcePoint" />
            <mxPoint x="828" y="210" as="targetPoint" />
          </mxGeometry>
        </mxCell>
        <mxCell id="y9X2fHoFPcFzoOq7KdYe-53" value="" style="ellipse;whiteSpace=wrap;html=1;align=center;aspect=fixed;fillColor=none;strokeColor=none;resizable=0;perimeter=centerPerimeter;rotatable=0;allowArrows=0;points=[];outlineConnect=1;" vertex="1" parent="1">
          <mxGeometry x="685" y="300" width="10" height="10" as="geometry" />
        </mxCell>
        <mxCell id="y9X2fHoFPcFzoOq7KdYe-54" value="Security" style="shape=module;align=left;spacingLeft=20;align=center;verticalAlign=top;whiteSpace=wrap;html=1;" vertex="1" parent="1">
          <mxGeometry x="910" y="173" width="100" height="50" as="geometry" />
        </mxCell>
        <mxCell id="y9X2fHoFPcFzoOq7KdYe-55" value="Encryption" style="text;html=1;align=center;verticalAlign=middle;resizable=0;points=[];autosize=1;strokeColor=none;fillColor=none;" vertex="1" parent="1">
          <mxGeometry x="798" y="148" width="80" height="30" as="geometry" />
        </mxCell>
        <mxCell id="y9X2fHoFPcFzoOq7KdYe-56" value="Access control" style="text;html=1;align=center;verticalAlign=middle;resizable=0;points=[];autosize=1;strokeColor=none;fillColor=none;" vertex="1" parent="1">
          <mxGeometry x="792" y="212" width="100" height="30" as="geometry" />
        </mxCell>
        <mxCell id="y9X2fHoFPcFzoOq7KdYe-57" value="" style="rounded=0;orthogonalLoop=1;jettySize=auto;html=1;endArrow=halfCircle;endFill=0;endSize=6;strokeWidth=1;sketch=0;" edge="1" parent="1">
          <mxGeometry relative="1" as="geometry">
            <mxPoint x="760" y="310" as="sourcePoint" />
            <mxPoint x="820" y="310" as="targetPoint" />
          </mxGeometry>
        </mxCell>
        <mxCell id="y9X2fHoFPcFzoOq7KdYe-58" value="" style="rounded=0;orthogonalLoop=1;jettySize=auto;html=1;endArrow=oval;endFill=0;sketch=0;sourcePerimeterSpacing=0;targetPerimeterSpacing=0;endSize=10;" edge="1" parent="1">
          <mxGeometry relative="1" as="geometry">
            <mxPoint x="905" y="310" as="sourcePoint" />
            <mxPoint x="825" y="310" as="targetPoint" />
          </mxGeometry>
        </mxCell>
        <mxCell id="y9X2fHoFPcFzoOq7KdYe-59" value="" style="ellipse;whiteSpace=wrap;html=1;align=center;aspect=fixed;fillColor=none;strokeColor=none;resizable=0;perimeter=centerPerimeter;rotatable=0;allowArrows=0;points=[];outlineConnect=1;" vertex="1" parent="1">
          <mxGeometry x="685" y="300" width="10" height="10" as="geometry" />
        </mxCell>
        <mxCell id="y9X2fHoFPcFzoOq7KdYe-60" value="persistance" style="shape=module;align=left;spacingLeft=20;align=center;verticalAlign=top;whiteSpace=wrap;html=1;" vertex="1" parent="1">
          <mxGeometry x="905" y="294" width="100" height="50" as="geometry" />
        </mxCell>
        <mxCell id="y9X2fHoFPcFzoOq7KdYe-61" value="" style="rounded=0;orthogonalLoop=1;jettySize=auto;html=1;endArrow=halfCircle;endFill=0;endSize=6;strokeWidth=1;sketch=0;" edge="1" parent="1">
          <mxGeometry relative="1" as="geometry">
            <mxPoint x="760" y="330" as="sourcePoint" />
            <mxPoint x="825" y="330" as="targetPoint" />
          </mxGeometry>
        </mxCell>
        <mxCell id="y9X2fHoFPcFzoOq7KdYe-62" value="" style="rounded=0;orthogonalLoop=1;jettySize=auto;html=1;endArrow=oval;endFill=0;sketch=0;sourcePerimeterSpacing=0;targetPerimeterSpacing=0;endSize=10;" edge="1" parent="1">
          <mxGeometry relative="1" as="geometry">
            <mxPoint x="900" y="330" as="sourcePoint" />
            <mxPoint x="830" y="330" as="targetPoint" />
          </mxGeometry>
        </mxCell>
        <mxCell id="y9X2fHoFPcFzoOq7KdYe-63" value="" style="ellipse;whiteSpace=wrap;html=1;align=center;aspect=fixed;fillColor=none;strokeColor=none;resizable=0;perimeter=centerPerimeter;rotatable=0;allowArrows=0;points=[];outlineConnect=1;" vertex="1" parent="1">
          <mxGeometry x="685" y="297" width="10" height="10" as="geometry" />
        </mxCell>
        <mxCell id="y9X2fHoFPcFzoOq7KdYe-64" value="Encryption" style="text;html=1;align=center;verticalAlign=middle;resizable=0;points=[];autosize=1;strokeColor=none;fillColor=none;" vertex="1" parent="1">
          <mxGeometry x="800" y="274" width="80" height="30" as="geometry" />
        </mxCell>
        <mxCell id="y9X2fHoFPcFzoOq7KdYe-65" value="Access control" style="text;html=1;align=center;verticalAlign=middle;resizable=0;points=[];autosize=1;strokeColor=none;fillColor=none;" vertex="1" parent="1">
          <mxGeometry x="790" y="333" width="100" height="30" as="geometry" />
        </mxCell>
        <mxCell id="y9X2fHoFPcFzoOq7KdYe-66" value="" style="rounded=0;orthogonalLoop=1;jettySize=auto;html=1;endArrow=halfCircle;endFill=0;endSize=6;strokeWidth=1;sketch=0;" edge="1" parent="1">
          <mxGeometry relative="1" as="geometry">
            <mxPoint x="1010" y="321" as="sourcePoint" />
            <mxPoint x="1055" y="441" as="targetPoint" />
            <Array as="points">
              <mxPoint x="1085" y="321" />
              <mxPoint x="1085" y="441" />
            </Array>
          </mxGeometry>
        </mxCell>
        <mxCell id="y9X2fHoFPcFzoOq7KdYe-67" value="" style="rounded=0;orthogonalLoop=1;jettySize=auto;html=1;endArrow=oval;endFill=0;sketch=0;sourcePerimeterSpacing=0;targetPerimeterSpacing=0;endSize=10;exitX=1;exitY=0.5;exitDx=0;exitDy=0;" edge="1" parent="1" source="y9X2fHoFPcFzoOq7KdYe-69">
          <mxGeometry relative="1" as="geometry">
            <mxPoint x="956" y="440" as="sourcePoint" />
            <mxPoint x="1050" y="440" as="targetPoint" />
          </mxGeometry>
        </mxCell>
        <mxCell id="y9X2fHoFPcFzoOq7KdYe-68" value="" style="ellipse;whiteSpace=wrap;html=1;align=center;aspect=fixed;fillColor=none;strokeColor=none;resizable=0;perimeter=centerPerimeter;rotatable=0;allowArrows=0;points=[];outlineConnect=1;" vertex="1" parent="1">
          <mxGeometry x="685" y="300" width="10" height="10" as="geometry" />
        </mxCell>
        <mxCell id="y9X2fHoFPcFzoOq7KdYe-69" value="Data base" style="shape=module;align=left;spacingLeft=20;align=center;verticalAlign=top;whiteSpace=wrap;html=1;" vertex="1" parent="1">
          <mxGeometry x="840" y="413" width="100" height="50" as="geometry" />
        </mxCell>
        <mxCell id="y9X2fHoFPcFzoOq7KdYe-70" value="Data base connector" style="text;html=1;align=center;verticalAlign=middle;resizable=0;points=[];autosize=1;strokeColor=none;fillColor=none;" vertex="1" parent="1">
          <mxGeometry x="960" y="395" width="130" height="30" as="geometry" />
        </mxCell>
      </root>
    </mxGraphModel>
  </diagram>
</mxfile>
